<?xml version="1.0" encoding="utf-8"?>
<!-- Generator: Adobe Illustrator 16.0.0, SVG Export Plug-In . SVG Version: 6.00 Build 0)  -->
<!DOCTYPE svg PUBLIC "-//W3C//DTD SVG 1.1//EN" "http://www.w3.org/Graphics/SVG/1.1/DTD/svg11.dtd">
<svg version="1.1" id="Layer_1" xmlns="http://www.w3.org/2000/svg" xmlns:xlink="http://www.w3.org/1999/xlink" x="0px" y="0px"
	 width="901px" height="182px" viewBox="0 0 901 182" enable-background="new 0 0 901 182" xml:space="preserve">
<g>
	<path fill="#001F3F" d="M20.201,162.287V56.833h44.442c11.248,0,21.167,2.21,29.753,6.628c8.586,4.42,15.265,10.598,20.036,18.53
		c4.769,7.935,7.156,17.124,7.156,27.567c0,10.447-2.387,19.637-7.156,27.57c-4.771,7.936-11.45,14.111-20.036,18.529
		c-8.587,4.422-18.505,6.629-29.753,6.629H20.201z M35.267,149.182h28.472c8.738,0,16.294-1.66,22.672-4.973
		c6.377-3.314,11.323-7.957,14.839-13.936c3.514-5.975,5.273-12.879,5.273-20.715c0-7.932-1.759-14.861-5.273-20.788
		c-3.517-5.924-8.462-10.546-14.839-13.859c-6.378-3.315-13.934-4.972-22.672-4.972H35.267V149.182z"/>
	<path fill="#001F3F" d="M167.234,149.182H228.7v13.105h-76.531V56.833h74.42v13.106h-59.355V149.182z M165.878,102.328h54.235
		v12.805h-54.235V102.328z"/>
	<path fill="#001F3F" d="M289.561,162.203l-46.4-105.455h16.269l42.635,97.318h-9.34l50.648-134.338h15.065l-53.962,142.475H289.561
		z"/>
	<g>
		<g>
			<path fill="#15729B" d="M368.58,149.361V69.758h9.322l35.708,60.156h-5.002l35.25-60.156h9.325l0.114,79.603h-10.917
				l-0.114-62.433h2.616l-31.386,52.765h-5.231l-31.611-52.765h2.844v62.433H368.58z"/>
			<path fill="#15729B" d="M485.701,149.361V69.758h11.371v79.603H485.701z"/>
			<path fill="#15729B" d="M522.433,149.361v-7.732l53.559-66.411l1.252,4.434h-54.016v-9.893h64.249v7.732l-53.333,66.41
				l-1.363-4.434h56.174v9.895H522.433z"/>
			<path fill="#15729B" d="M645.697,149.814c-10.462,0-18.688-2.994-24.678-8.984c-5.989-5.986-8.983-14.74-8.983-26.266V69.304
				h11.373v44.804c0,8.869,1.951,15.354,5.858,19.445c3.9,4.094,9.417,6.141,16.544,6.141c7.202,0,12.753-2.047,16.659-6.141
				c3.903-4.092,5.857-10.576,5.857-19.445V69.304h11.03v45.261c0,11.525-2.977,20.279-8.927,26.266
				C664.479,146.82,656.234,149.814,645.697,149.814z"/>
			<path fill="#15729B" d="M711.196,149.361V69.758h31.042c6.977,0,12.927,1.099,17.854,3.299c4.927,2.2,8.716,5.384,11.371,9.553
				s3.982,9.134,3.982,14.896c0,5.764-1.327,10.707-3.982,14.84s-6.444,7.295-11.371,9.494c-4.927,2.203-10.877,3.299-17.854,3.299
				h-24.789l5.117-5.232v29.455H711.196z M722.566,121.045l-5.117-5.572h24.449c7.277,0,12.791-1.57,16.544-4.719
				c3.754-3.145,5.632-7.563,5.632-13.248c0-5.687-1.878-10.083-5.632-13.189c-3.753-3.109-9.267-4.665-16.544-4.665h-24.449
				l5.117-5.686V121.045z M764.414,149.361l-20.24-28.887h12.168l20.466,28.887H764.414z"/>
			<path fill="#15729B" d="M838.325,150.27c-6.065,0-11.693-1.023-16.886-3.07c-5.19-2.047-9.685-4.908-13.474-8.588
				c-3.793-3.674-6.748-7.975-8.87-12.904c-2.122-4.928-3.185-10.309-3.185-16.148c0-5.836,1.063-11.217,3.185-16.146
				c2.122-4.927,5.077-9.228,8.87-12.906c3.789-3.678,8.262-6.54,13.417-8.587c5.155-2.046,10.803-3.07,16.942-3.07
				c6.067,0,11.656,1.005,16.775,3.016c5.117,2.008,9.59,4.849,13.418,8.527c3.826,3.678,6.784,7.979,8.869,12.905
				c2.083,4.93,3.128,10.348,3.128,16.262s-1.045,11.336-3.128,16.264c-2.085,4.926-5.043,9.23-8.869,12.904
				c-3.828,3.678-8.301,6.523-13.418,8.527C849.981,149.268,844.393,150.27,838.325,150.27z M838.325,140.148
				c4.396,0,8.475-0.756,12.226-2.273c3.753-1.518,7.013-3.656,9.781-6.426c2.764-2.766,4.927-6.008,6.48-9.721
				c1.553-3.715,2.332-7.771,2.332-12.17c0-4.396-0.779-8.451-2.332-12.168c-1.554-3.711-3.717-6.952-6.48-9.722
				c-2.769-2.766-6.028-4.909-9.781-6.425c-3.751-1.514-7.829-2.272-12.226-2.272c-4.473,0-8.581,0.759-12.335,2.272
				c-3.755,1.517-7.032,3.66-9.835,6.425c-2.808,2.77-4.988,6.011-6.54,9.722c-1.554,3.717-2.333,7.771-2.333,12.168
				c0,4.398,0.779,8.455,2.333,12.17c1.552,3.713,3.732,6.955,6.54,9.721c2.803,2.77,6.08,4.908,9.835,6.426
				C829.744,139.393,833.853,140.148,838.325,140.148z"/>
		</g>
	</g>
</g>
</svg>
